# xmcd CD database file
#
# Track frame offsets:
#	150
#	16422
#	27407
#	40717
#	49847
#	67942
#	81260
#	94967
#	105747
#	124872
#	138120
#	153712
#	164042
#	188827
#
# Disc length: 2678 seconds
#
# Revision: 0
# Processed by: cddbd v1.4PL0 Copyright (c) Steve Scherf et al.
# Submitted via: CDex 1.50beta9
#
DISCID=bc0a740e
DTITLE=SALLY O'BRIEN - THE GREEN FIELDS ARE CALLING
DYEAR=1900
DGENRE=Country
TTITLE0=My Green Fields Are Calling
TTITLE1=Come Back To Erin
TTITLE2=Hometown On The Foyle
TTITLE3=Little White Washed Chimmney
TTITLE4=Bunch Of Thyme
TTITLE5=A Mother's Love A Blessing
TTITLE6=Irish Selection-If You'er Irish Come Into The Parlour-McNmara's Band-Mick Gilligans Daughter
TTITLE7=Flying Home To Aherlow
TTITLE8=Red Is The Rose
TTITLE9=My Own Donegal
TTITLE10=Beautiful Beautiful Ireland
TTITLE11=Let Him Go , Let Him Tarry
TTITLE12=Irish Waltz Selection-The Galway Shaw-Any Tipperary Town-Home Of Donegal-The Boys From The Co. Armagh
TTITLE13=Evergreen Is The Valley
EXTD=
EXTT0=
EXTT1=
EXTT2=
EXTT3=
EXTT4=
EXTT5=
EXTT6=
EXTT7=
EXTT8=
EXTT9=
EXTT10=
EXTT11=
EXTT12=
EXTT13=
PLAYORDER=
